# xmcd CD database file
#
# Track frame offsets:
#	150
#	11780
#	22830
#	36515
#	52717
#	64257
#	80625
#	95062
#	108735
#	122105
#
# Disc length: 1755 seconds
#
# Revision: 3
# Processed by: cddbd v1.5.2PL0 Copyright (c) Steve Scherf et al.
# Submitted via: CDex 1.79
#
DISCID=8406d90a
DTITLE=Willie Nelson - Somewhere Over The Rainbow
DYEAR=1985
DGENRE=Country
TTITLE0=Mona Lisa
TTITLE1=Exactly Like You
TTITLE2=Who's Sorry Now?
TTITLE3=I'm Confessin' (That I Love You)
TTITLE4=Won't You Ride In My Little Red Wagon
TTITLE5=Over The Rainbow
TTITLE6=In My Mother's Eyes
TTITLE7=I'm Gonna Sit Right Down And Write Myself A Letter
TTITLE8=It Wouldn't Be The Same Without You
TTITLE9=Twinkle, Twinkle Little Star
EXTD=YEAR: 1985
EXTT0=
EXTT1=
EXTT2=
EXTT3=
EXTT4=
EXTT5=
EXTT6=
EXTT7=
EXTT8=
EXTT9=
PLAYORDER=
